<svg xmlns="http://www.w3.org/2000/svg" xmlns:xlink="http://www.w3.org/1999/xlink" width="800" zoomAndPan="magnify" viewBox="0 0 600 1499.999933" height="2000" preserveAspectRatio="xMidYMid meet" version="1.0"><defs><g/><clipPath id="801a291ee1"><path d="M 60 264.398438 L 540 264.398438 L 540 298.007812 L 60 298.007812 Z M 60 264.398438 " clip-rule="nonzero"/></clipPath><clipPath id="d2fbed6d80"><path d="M 276 298 L 332 298 L 332 354 L 276 354 Z M 276 298 " clip-rule="nonzero"/></clipPath><clipPath id="7f696e1c23"><path d="M 277.453125 297.449219 L 332.175781 299.265625 L 330.28125 356.234375 L 275.5625 354.417969 Z M 277.453125 297.449219 " clip-rule="nonzero"/></clipPath><clipPath id="ebfd1ae009"><path d="M 277.453125 297.449219 L 332.175781 299.265625 L 330.28125 356.234375 L 275.5625 354.417969 Z M 277.453125 297.449219 " clip-rule="nonzero"/></clipPath><clipPath id="26645ae450"><path d="M 255 754 L 310 754 L 310 811 L 255 811 Z M 255 754 " clip-rule="nonzero"/></clipPath><clipPath id="c00e4f0801"><path d="M 255.96875 753.980469 L 310.6875 755.796875 L 308.796875 812.765625 L 254.078125 810.949219 Z M 255.96875 753.980469 " clip-rule="nonzero"/></clipPath><clipPath id="5e91347eee"><path d="M 255.96875 753.980469 L 310.6875 755.796875 L 308.796875 812.765625 L 254.078125 810.949219 Z M 255.96875 753.980469 " clip-rule="nonzero"/></clipPath><clipPath id="c31e8e2969"><path d="M 268 1261 L 324 1261 L 324 1317 L 268 1317 Z M 268 1261 " clip-rule="nonzero"/></clipPath><clipPath id="f2676e86c6"><path d="M 269.875 1260.296875 L 324.59375 1262.113281 L 322.703125 1319.082031 L 267.984375 1317.265625 Z M 269.875 1260.296875 " clip-rule="nonzero"/></clipPath><clipPath id="ef92c5f4f4"><path d="M 269.875 1260.296875 L 324.59375 1262.113281 L 322.703125 1319.082031 L 267.984375 1317.265625 Z M 269.875 1260.296875 " clip-rule="nonzero"/></clipPath><clipPath id="3f57dd6454"><path d="M 74 984 L 130 984 L 130 1041 L 74 1041 Z M 74 984 " clip-rule="nonzero"/></clipPath><clipPath id="1ae44a5d3a"><path d="M 75.890625 983.890625 L 130.609375 985.707031 L 128.71875 1042.675781 L 74 1040.859375 Z M 75.890625 983.890625 " clip-rule="nonzero"/></clipPath><clipPath id="4592b90942"><path d="M 75.890625 983.890625 L 130.609375 985.707031 L 128.71875 1042.675781 L 74 1040.859375 Z M 75.890625 983.890625 " clip-rule="nonzero"/></clipPath><clipPath id="663aca576e"><path d="M 60 526 L 116 526 L 116 582 L 60 582 Z M 60 526 " clip-rule="nonzero"/></clipPath><clipPath id="e712719f65"><path d="M 61.882812 525.410156 L 116.601562 527.226562 L 114.710938 584.195312 L 59.992188 582.378906 Z M 61.882812 525.410156 " clip-rule="nonzero"/></clipPath><clipPath id="850c191095"><path d="M 61.882812 525.410156 L 116.601562 527.226562 L 114.710938 584.195312 L 59.992188 582.378906 Z M 61.882812 525.410156 " clip-rule="nonzero"/></clipPath></defs><rect x="-60" width="720" fill="#ffffff" y="-149.999993" height="1799.99992" fill-opacity="1"/><rect x="-60" width="720" fill="#e8e5e0" y="-149.999993" height="1799.99992" fill-opacity="1"/><g clip-path="url(#801a291ee1)"><path fill="#f89205" d="M 60 264.398438 L 539.988281 264.398438 L 539.988281 298.007812 L 60 298.007812 Z M 60 264.398438 " fill-opacity="1" fill-rule="nonzero"/></g><g clip-path="url(#d2fbed6d80)"><g clip-path="url(#7f696e1c23)"><g clip-path="url(#ebfd1ae009)"><path fill="#000000" d="M 329.8125 348.386719 C 329.722656 349.136719 329.609375 349.894531 329.097656 350.703125 C 327.179688 353.742188 321.996094 353.617188 319.203125 353.570312 C 298.554688 353.234375 288.226562 353.066406 286.203125 353.328125 C 284.210938 353.585938 279.824219 354.257812 278.15625 351.996094 C 277.214844 350.714844 276.558594 343.023438 276.558594 342.359375 C 276.566406 335.757812 276.9375 333.792969 277.0625 327.257812 C 277.1875 320.730469 278.367188 315.691406 277.875 309.179688 C 277.652344 306.265625 277.265625 303.167969 279.214844 300.921875 C 281.03125 298.824219 283.941406 298.554688 287.175781 298.417969 C 295.097656 298.074219 298.660156 298.761719 305.042969 299.007812 C 305.042969 299.007812 317.207031 299.476562 325.636719 300.972656 C 326.136719 301.058594 327.289062 301.277344 328.367188 302.125 C 329.808594 303.261719 330.578125 305.105469 330.925781 308.386719 C 331.679688 315.46875 329.289062 318.078125 330.589844 324.988281 L 330.675781 335.210938 Z M 329.8125 348.386719 " fill-opacity="1" fill-rule="nonzero"/></g></g></g><g fill="#ffcd02" fill-opacity="1"><g transform="translate(295.320699, 342.783387)"><g><path d="M 12.4375 -32.953125 C 12.632812 -32.953125 12.8125 -32.890625 12.96875 -32.765625 C 13.09375 -32.609375 13.15625 -32.429688 13.15625 -32.234375 L 13.15625 -0.734375 C 13.15625 -0.535156 13.09375 -0.367188 12.96875 -0.234375 C 12.8125 -0.078125 12.632812 0 12.4375 0 L 7.296875 0 C 7.117188 0 6.960938 -0.078125 6.828125 -0.234375 C 6.671875 -0.367188 6.59375 -0.535156 6.59375 -0.734375 L 6.59375 -27.515625 C 6.59375 -27.804688 6.472656 -28.019531 6.234375 -28.15625 L 4.34375 -29.25 C 4.144531 -29.351562 4.023438 -29.515625 3.984375 -29.734375 C 3.929688 -29.960938 3.992188 -30.164062 4.171875 -30.34375 L 6.359375 -32.71875 C 6.515625 -32.875 6.691406 -32.953125 6.890625 -32.953125 Z M 12.4375 -32.953125 "/></g></g></g><g clip-path="url(#26645ae450)"><g clip-path="url(#c00e4f0801)"><g clip-path="url(#5e91347eee)"><path fill="#000000" d="M 308.328125 804.917969 C 308.238281 805.667969 308.121094 806.425781 307.609375 807.238281 C 305.691406 810.277344 300.507812 810.148438 297.71875 810.105469 C 277.066406 809.765625 266.738281 809.597656 264.71875 809.859375 C 262.722656 810.117188 258.335938 810.789062 256.671875 808.527344 C 255.726562 807.246094 255.074219 799.554688 255.074219 798.890625 C 255.082031 792.289062 255.449219 790.324219 255.574219 783.789062 C 255.699219 777.261719 256.882812 772.222656 256.386719 765.714844 C 256.167969 762.800781 255.777344 759.703125 257.726562 757.453125 C 259.546875 755.355469 262.457031 755.089844 265.691406 754.949219 C 273.609375 754.605469 277.171875 755.296875 283.558594 755.542969 C 283.558594 755.542969 295.71875 756.011719 304.148438 757.503906 C 304.652344 757.59375 305.804688 757.808594 306.878906 758.660156 C 308.324219 759.796875 309.09375 761.636719 309.441406 764.917969 C 310.195312 772.003906 307.804688 774.609375 309.101562 781.519531 L 309.191406 791.742188 Z M 308.328125 804.917969 " fill-opacity="1" fill-rule="nonzero"/></g></g></g><g fill="#ffcd02" fill-opacity="1"><g transform="translate(269.189405, 803.282269)"><g><path d="M 22.546875 -16.84375 C 23.410156 -15.9375 24.097656 -14.921875 24.609375 -13.796875 C 25.085938 -12.640625 25.328125 -11.410156 25.328125 -10.109375 C 25.328125 -8.722656 25.039062 -7.421875 24.46875 -6.203125 C 23.894531 -4.960938 23.117188 -3.890625 22.140625 -2.984375 C 21.148438 -2.054688 19.992188 -1.328125 18.671875 -0.796875 C 17.335938 -0.265625 15.929688 0 14.453125 0 C 13.234375 0 12.070312 -0.175781 10.96875 -0.53125 C 9.863281 -0.882812 8.859375 -1.378906 7.953125 -2.015625 C 7.023438 -2.640625 6.226562 -3.394531 5.5625 -4.28125 C 4.90625 -5.132812 4.398438 -6.082031 4.046875 -7.125 C 3.867188 -7.632812 3.945312 -8.097656 4.28125 -8.515625 C 4.582031 -8.941406 5 -9.15625 5.53125 -9.15625 L 9.34375 -9.15625 C 9.894531 -9.15625 10.328125 -8.910156 10.640625 -8.421875 C 11.015625 -7.867188 11.535156 -7.425781 12.203125 -7.09375 C 12.867188 -6.738281 13.617188 -6.5625 14.453125 -6.5625 C 15.046875 -6.5625 15.609375 -6.660156 16.140625 -6.859375 C 16.648438 -7.035156 17.101562 -7.289062 17.5 -7.625 C 17.875 -7.9375 18.1875 -8.3125 18.4375 -8.75 C 18.65625 -9.175781 18.765625 -9.628906 18.765625 -10.109375 C 18.765625 -10.503906 18.6875 -10.914062 18.53125 -11.34375 C 18.375 -11.757812 18.164062 -12.164062 17.90625 -12.5625 C 17.632812 -12.9375 17.3125 -13.28125 16.9375 -13.59375 C 16.5625 -13.882812 16.15625 -14.101562 15.71875 -14.25 C 15.40625 -14.363281 15.148438 -14.554688 14.953125 -14.828125 C 14.753906 -15.085938 14.65625 -15.382812 14.65625 -15.71875 L 14.65625 -17.96875 C 14.65625 -18.28125 14.734375 -18.566406 14.890625 -18.828125 C 15.046875 -19.078125 15.265625 -19.265625 15.546875 -19.390625 C 15.878906 -19.546875 16.203125 -19.78125 16.515625 -20.09375 C 16.796875 -20.382812 17.050781 -20.71875 17.28125 -21.09375 C 17.476562 -21.445312 17.640625 -21.820312 17.765625 -22.21875 C 17.878906 -22.59375 17.9375 -22.945312 17.9375 -23.28125 C 17.9375 -23.695312 17.847656 -24.09375 17.671875 -24.46875 C 17.472656 -24.84375 17.21875 -25.175781 16.90625 -25.46875 C 16.601562 -25.726562 16.238281 -25.945312 15.8125 -26.125 C 15.394531 -26.28125 14.941406 -26.359375 14.453125 -26.359375 C 13.742188 -26.359375 13.113281 -26.191406 12.5625 -25.859375 C 11.988281 -25.523438 11.570312 -25.109375 11.3125 -24.609375 C 11 -24.046875 10.53125 -23.765625 9.90625 -23.765625 L 6.203125 -23.765625 C 5.691406 -23.765625 5.28125 -23.96875 4.96875 -24.375 C 4.664062 -24.769531 4.578125 -25.222656 4.703125 -25.734375 C 4.992188 -26.765625 5.445312 -27.722656 6.0625 -28.609375 C 6.664062 -29.472656 7.394531 -30.226562 8.25 -30.875 C 9.113281 -31.507812 10.078125 -32.015625 11.140625 -32.390625 C 12.179688 -32.742188 13.285156 -32.921875 14.453125 -32.921875 C 15.847656 -32.921875 17.15625 -32.664062 18.375 -32.15625 C 19.582031 -31.65625 20.640625 -30.972656 21.546875 -30.109375 C 22.453125 -29.222656 23.171875 -28.191406 23.703125 -27.015625 C 24.234375 -25.847656 24.5 -24.601562 24.5 -23.28125 C 24.5 -22.195312 24.320312 -21.164062 23.96875 -20.1875 C 23.613281 -19.21875 23.128906 -18.335938 22.515625 -17.546875 C 22.316406 -17.296875 22.328125 -17.0625 22.546875 -16.84375 Z M 22.546875 -16.84375 "/></g></g></g><g clip-path="url(#c31e8e2969)"><g clip-path="url(#f2676e86c6)"><g clip-path="url(#ef92c5f4f4)"><path fill="#000000" d="M 322.234375 1311.230469 C 322.144531 1311.980469 322.03125 1312.738281 321.515625 1313.550781 C 319.597656 1316.589844 314.417969 1316.460938 311.625 1316.417969 C 290.972656 1316.082031 280.644531 1315.914062 278.625 1316.171875 C 276.628906 1316.429688 272.242188 1317.101562 270.578125 1314.839844 C 269.632812 1313.558594 268.980469 1305.871094 268.980469 1305.207031 C 268.988281 1298.605469 269.355469 1296.636719 269.480469 1290.101562 C 269.605469 1283.578125 270.789062 1278.539062 270.292969 1272.027344 C 270.074219 1269.113281 269.683594 1266.015625 271.632812 1263.765625 C 273.453125 1261.667969 276.363281 1261.402344 279.597656 1261.261719 C 287.515625 1260.921875 291.082031 1261.609375 297.464844 1261.855469 C 297.464844 1261.855469 309.625 1262.324219 318.058594 1263.816406 C 318.558594 1263.90625 319.710938 1264.125 320.785156 1264.972656 C 322.230469 1266.109375 323 1267.949219 323.347656 1271.234375 C 324.101562 1278.316406 321.710938 1280.925781 323.007812 1287.832031 L 323.097656 1298.058594 Z M 322.234375 1311.230469 " fill-opacity="1" fill-rule="nonzero"/></g></g></g><g fill="#ffcd02" fill-opacity="1"><g transform="translate(283.095839, 1309.59597)"><g><path d="M 22.71875 -21.25 C 25.34375 -19.0625 26.65625 -15.8125 26.65625 -11.5 C 26.65625 -10.351562 26.546875 -9.328125 26.328125 -8.421875 C 26.085938 -7.492188 25.789062 -6.675781 25.4375 -5.96875 C 25.082031 -5.257812 24.679688 -4.640625 24.234375 -4.109375 C 23.796875 -3.578125 23.363281 -3.132812 22.9375 -2.78125 C 21.90625 -1.894531 20.722656 -1.222656 19.390625 -0.765625 C 18.066406 -0.273438 16.664062 -0.03125 15.1875 -0.03125 C 13.789062 -0.03125 12.460938 -0.226562 11.203125 -0.625 C 9.921875 -1.03125 8.757812 -1.609375 7.71875 -2.359375 C 5.625 -3.898438 4.378906 -5.875 3.984375 -8.28125 C 3.929688 -8.664062 4.03125 -9 4.28125 -9.28125 C 4.519531 -9.570312 4.828125 -9.71875 5.203125 -9.71875 L 9.453125 -9.71875 C 9.691406 -9.71875 9.921875 -9.648438 10.140625 -9.515625 C 10.335938 -9.359375 10.484375 -9.160156 10.578125 -8.921875 C 10.710938 -8.566406 10.941406 -8.242188 11.265625 -7.953125 C 11.578125 -7.671875 11.945312 -7.429688 12.375 -7.234375 C 12.789062 -7.023438 13.242188 -6.878906 13.734375 -6.796875 C 14.210938 -6.679688 14.695312 -6.625 15.1875 -6.625 C 16.625 -6.625 17.785156 -7.003906 18.671875 -7.765625 C 19.128906 -8.179688 19.46875 -8.695312 19.6875 -9.3125 C 19.914062 -9.9375 20.050781 -10.664062 20.09375 -11.5 C 20.113281 -12.300781 20.066406 -12.957031 19.953125 -13.46875 C 19.847656 -13.96875 19.71875 -14.394531 19.5625 -14.75 C 19.382812 -15.082031 19.195312 -15.359375 19 -15.578125 C 18.800781 -15.804688 18.632812 -16.019531 18.5 -16.21875 C 18.144531 -16.75 17.660156 -17.191406 17.046875 -17.546875 C 16.421875 -17.867188 15.734375 -18.144531 14.984375 -18.375 C 14.234375 -18.570312 13.4375 -18.710938 12.59375 -18.796875 C 11.738281 -18.867188 10.910156 -18.90625 10.109375 -18.90625 C 9.296875 -18.90625 8.535156 -18.878906 7.828125 -18.828125 C 7.097656 -18.765625 6.476562 -18.710938 5.96875 -18.671875 C 5.59375 -18.617188 5.269531 -18.71875 5 -18.96875 C 4.738281 -19.207031 4.609375 -19.515625 4.609375 -19.890625 L 4.609375 -31.859375 C 4.609375 -32.210938 4.726562 -32.515625 4.96875 -32.765625 C 5.21875 -33.003906 5.503906 -33.125 5.828125 -33.125 L 24.234375 -33.125 C 24.566406 -33.125 24.851562 -33.003906 25.09375 -32.765625 C 25.34375 -32.515625 25.46875 -32.210938 25.46875 -31.859375 L 25.46875 -27.78125 C 25.46875 -27.425781 25.34375 -27.140625 25.09375 -26.921875 C 24.851562 -26.679688 24.566406 -26.5625 24.234375 -26.5625 L 12.203125 -26.5625 C 11.910156 -26.5625 11.664062 -26.460938 11.46875 -26.265625 C 11.269531 -26.066406 11.171875 -25.820312 11.171875 -25.53125 L 11.171875 -25.0625 C 11.171875 -24.78125 11.28125 -24.539062 11.5 -24.34375 C 11.695312 -24.132812 11.941406 -24.046875 12.234375 -24.078125 C 14.515625 -24.179688 16.515625 -24.003906 18.234375 -23.546875 C 19.960938 -23.054688 21.457031 -22.289062 22.71875 -21.25 Z M 22.71875 -21.25 "/></g></g></g><g clip-path="url(#3f57dd6454)"><g clip-path="url(#1ae44a5d3a)"><g clip-path="url(#4592b90942)"><path fill="#000000" d="M 128.25 1034.824219 C 128.160156 1035.574219 128.046875 1036.332031 127.53125 1037.144531 C 125.617188 1040.183594 120.433594 1040.054688 117.640625 1040.011719 C 96.988281 1039.675781 86.664062 1039.507812 84.640625 1039.765625 C 82.644531 1040.023438 78.261719 1040.695312 76.59375 1038.433594 C 75.648438 1037.152344 74.996094 1029.464844 74.996094 1028.796875 C 75.003906 1022.195312 75.371094 1020.230469 75.496094 1013.695312 C 75.621094 1007.171875 76.804688 1002.128906 76.3125 995.621094 C 76.089844 992.707031 75.703125 989.609375 77.648438 987.359375 C 79.46875 985.261719 82.378906 984.996094 85.613281 984.855469 C 93.53125 984.515625 97.097656 985.203125 103.480469 985.449219 C 103.480469 985.449219 115.644531 985.917969 124.074219 987.410156 C 124.574219 987.5 125.726562 987.714844 126.804688 988.566406 C 128.246094 989.703125 129.015625 991.542969 129.363281 994.828125 C 130.117188 1001.910156 127.726562 1004.515625 129.027344 1011.425781 L 129.113281 1021.652344 Z M 128.25 1034.824219 " fill-opacity="1" fill-rule="nonzero"/></g></g></g><g fill="#ffcd02" fill-opacity="1"><g transform="translate(89.112075, 1033.189122)"><g><path d="M 22.3125 -32.953125 C 23 -32.953125 23.570312 -32.722656 24.03125 -32.265625 C 24.5 -31.773438 24.734375 -31.195312 24.734375 -30.53125 L 24.734375 -2.421875 C 24.734375 -1.753906 24.5 -1.191406 24.03125 -0.734375 C 23.570312 -0.242188 23 0 22.3125 0 L 20.59375 0 C 19.925781 0 19.363281 -0.242188 18.90625 -0.734375 C 18.414062 -1.191406 18.171875 -1.753906 18.171875 -2.421875 L 18.171875 -6.09375 C 18.171875 -6.382812 18.082031 -6.628906 17.90625 -6.828125 C 17.707031 -7.003906 17.472656 -7.09375 17.203125 -7.09375 L 6.40625 -7.09375 C 5.738281 -7.09375 5.171875 -7.335938 4.703125 -7.828125 C 4.222656 -8.285156 3.984375 -8.847656 3.984375 -9.515625 L 3.984375 -15.1875 C 3.984375 -15.78125 4.171875 -16.300781 4.546875 -16.75 L 17.4375 -32.09375 C 17.6875 -32.382812 17.972656 -32.609375 18.296875 -32.765625 C 18.609375 -32.890625 18.941406 -32.953125 19.296875 -32.953125 Z M 18.171875 -21.359375 C 18.171875 -21.597656 18.070312 -21.757812 17.875 -21.84375 C 17.65625 -21.914062 17.46875 -21.863281 17.3125 -21.6875 L 11.234375 -14.484375 C 11.109375 -14.304688 11.085938 -14.128906 11.171875 -13.953125 C 11.265625 -13.753906 11.421875 -13.65625 11.640625 -13.65625 L 17.671875 -13.65625 C 17.828125 -13.65625 17.945312 -13.710938 18.03125 -13.828125 C 18.125 -13.910156 18.171875 -14.019531 18.171875 -14.15625 Z M 18.171875 -21.359375 "/></g></g></g><g clip-path="url(#663aca576e)"><g clip-path="url(#e712719f65)"><g clip-path="url(#850c191095)"><path fill="#000000" d="M 114.242188 576.347656 C 114.152344 577.097656 114.039062 577.855469 113.523438 578.667969 C 111.609375 581.707031 106.425781 581.578125 103.632812 581.53125 C 82.980469 581.195312 72.65625 581.027344 70.632812 581.289062 C 68.636719 581.546875 64.253906 582.21875 62.585938 579.957031 C 61.640625 578.675781 60.988281 570.984375 60.988281 570.320312 C 60.996094 563.71875 61.363281 561.753906 61.488281 555.21875 C 61.613281 548.691406 62.796875 543.652344 62.300781 537.144531 C 62.082031 534.230469 61.691406 531.128906 63.640625 528.882812 C 65.460938 526.785156 68.371094 526.519531 71.605469 526.378906 C 79.523438 526.035156 83.089844 526.726562 89.472656 526.972656 C 89.472656 526.972656 101.632812 527.4375 110.066406 528.933594 C 110.566406 529.023438 111.71875 529.238281 112.796875 530.089844 C 114.238281 531.222656 115.007812 533.066406 115.355469 536.347656 C 116.109375 543.429688 113.71875 546.039062 115.015625 552.949219 L 115.105469 563.171875 Z M 114.242188 576.347656 " fill-opacity="1" fill-rule="nonzero"/></g></g></g><g fill="#ffcd02" fill-opacity="1"><g transform="translate(74.008212, 574.711281)"><g><path d="M 23.765625 -6.40625 C 24.210938 -6.40625 24.601562 -6.25 24.9375 -5.9375 C 25.238281 -5.601562 25.390625 -5.21875 25.390625 -4.78125 L 25.390625 -1.421875 C 25.390625 -0.984375 25.238281 -0.609375 24.9375 -0.296875 C 24.601562 0.015625 24.210938 0.171875 23.765625 0.171875 L 6.140625 0.171875 C 5.691406 0.171875 5.3125 0.015625 5 -0.296875 C 4.695312 -0.609375 4.546875 -0.984375 4.546875 -1.421875 L 4.546875 -3.109375 C 4.546875 -4.421875 4.800781 -5.582031 5.3125 -6.59375 C 5.8125 -7.613281 6.460938 -8.53125 7.265625 -9.34375 C 8.054688 -10.144531 8.953125 -10.890625 9.953125 -11.578125 C 10.941406 -12.234375 11.921875 -12.863281 12.890625 -13.46875 C 14.003906 -14.125 15 -14.765625 15.875 -15.390625 C 16.738281 -15.984375 17.484375 -16.585938 18.109375 -17.203125 C 18.722656 -17.828125 19.195312 -18.484375 19.53125 -19.171875 C 19.84375 -19.847656 20 -20.609375 20 -21.453125 C 20 -23.128906 19.519531 -24.367188 18.5625 -25.171875 C 18.144531 -25.546875 17.640625 -25.832031 17.046875 -26.03125 C 16.441406 -26.226562 15.789062 -26.328125 15.09375 -26.328125 C 14.625 -26.328125 14.15625 -26.28125 13.6875 -26.1875 C 13.207031 -26.082031 12.769531 -25.941406 12.375 -25.765625 C 11.945312 -25.566406 11.578125 -25.332031 11.265625 -25.0625 C 10.960938 -24.78125 10.734375 -24.472656 10.578125 -24.140625 C 10.285156 -23.546875 9.800781 -23.25 9.125 -23.25 L 5.609375 -23.25 C 5.078125 -23.25 4.65625 -23.445312 4.34375 -23.84375 C 4.007812 -24.238281 3.898438 -24.691406 4.015625 -25.203125 C 4.253906 -26.265625 4.6875 -27.25 5.3125 -28.15625 C 5.90625 -29.0625 6.6875 -29.863281 7.65625 -30.5625 C 8.695312 -31.320312 9.847656 -31.898438 11.109375 -32.296875 C 12.367188 -32.691406 13.695312 -32.890625 15.09375 -32.890625 C 16.59375 -32.890625 18.003906 -32.65625 19.328125 -32.1875 C 20.648438 -31.726562 21.832031 -31.046875 22.875 -30.140625 C 23.289062 -29.765625 23.722656 -29.320312 24.171875 -28.8125 C 24.609375 -28.28125 25.003906 -27.660156 25.359375 -26.953125 C 25.710938 -26.242188 26 -25.4375 26.21875 -24.53125 C 26.445312 -23.601562 26.5625 -22.578125 26.5625 -21.453125 C 26.5625 -19.617188 26.257812 -18.0625 25.65625 -16.78125 C 25.039062 -15.5 24.269531 -14.378906 23.34375 -13.421875 C 22.414062 -12.472656 21.390625 -11.644531 20.265625 -10.9375 C 19.128906 -10.207031 18.046875 -9.476562 17.015625 -8.75 C 16.484375 -8.375 16.003906 -8 15.578125 -7.625 C 15.140625 -7.25 14.785156 -6.960938 14.515625 -6.765625 C 14.453125 -6.722656 14.429688 -6.65625 14.453125 -6.5625 C 14.472656 -6.457031 14.539062 -6.40625 14.65625 -6.40625 Z M 23.765625 -6.40625 "/></g></g></g><path fill="#000000" d="M 331.277344 326.128906 L 340.277344 326.128906 L 340.277344 329.128906 L 331.277344 329.128906 Z M 343.277344 326.128906 L 352.277344 326.128906 L 352.277344 329.128906 L 343.277344 329.128906 Z M 355.277344 326.128906 L 364.277344 326.128906 L 364.277344 329.128906 L 355.277344 329.128906 Z M 367.277344 326.128906 L 376.277344 326.128906 L 376.277344 329.128906 L 367.277344 329.128906 Z M 379.277344 326.128906 L 388.277344 326.128906 L 388.277344 329.128906 L 379.277344 329.128906 Z M 391.277344 326.128906 L 400.277344 326.128906 L 400.277344 329.128906 L 391.277344 329.128906 Z M 403.277344 326.128906 L 412.277344 326.128906 L 412.277344 329.128906 L 403.277344 329.128906 Z M 415.277344 326.128906 L 424.277344 326.128906 L 424.277344 329.128906 L 415.277344 329.128906 Z M 427.277344 326.128906 L 436.277344 326.128906 L 436.277344 329.128906 L 427.277344 329.128906 Z M 439.277344 326.128906 L 448.277344 326.128906 L 448.277344 329.128906 L 439.277344 329.128906 Z M 451.277344 326.128906 L 460.277344 326.128906 L 460.277344 329.128906 L 451.277344 329.128906 Z M 463.277344 326.128906 L 472.277344 326.128906 L 472.277344 329.128906 L 463.277344 329.128906 Z M 475.277344 326.128906 L 484.277344 326.128906 L 484.277344 329.128906 L 475.277344 329.128906 Z M 487.277344 326.128906 L 496.277344 326.128906 L 496.277344 329.128906 L 487.277344 329.128906 Z M 499.277344 326.128906 L 508.277344 326.128906 L 508.277344 329.128906 L 499.277344 329.128906 Z M 511.277344 326.128906 L 520.277344 326.128906 L 520.277344 329.128906 L 511.277344 329.128906 Z M 523.277344 326.128906 L 532.277344 326.128906 L 532.277344 329.128906 L 523.277344 329.128906 Z M 535.277344 326.128906 L 544.277344 326.128906 L 544.277344 329.128906 L 535.277344 329.128906 Z M 547.277344 326.128906 L 552.054688 326.128906 C 553.597656 326.128906 555.113281 326.308594 556.601562 326.664062 L 555.90625 329.582031 C 554.644531 329.28125 553.363281 329.128906 552.054688 329.128906 L 547.277344 329.128906 Z M 559.6875 327.679688 C 562.738281 328.980469 565.296875 330.9375 567.363281 333.550781 L 565.007812 335.410156 C 563.257812 333.195312 561.09375 331.539062 558.511719 330.441406 Z M 569.164062 336.269531 C 570.757812 339.175781 571.554688 342.296875 571.554688 345.628906 L 571.554688 345.652344 L 568.554688 345.652344 L 568.554688 345.628906 C 568.554688 342.808594 567.878906 340.167969 566.535156 337.710938 Z M 571.554688 348.652344 L 571.554688 357.652344 L 568.554688 357.652344 L 568.554688 348.652344 Z M 571.554688 360.652344 L 571.554688 369.652344 L 568.554688 369.652344 L 568.554688 360.652344 Z M 571.554688 372.652344 L 571.554688 381.652344 L 568.554688 381.652344 L 568.554688 372.652344 Z M 571.554688 384.652344 L 571.554688 393.652344 L 568.554688 393.652344 L 568.554688 384.652344 Z M 571.554688 396.652344 L 571.554688 405.652344 L 568.554688 405.652344 L 568.554688 396.652344 Z M 571.554688 408.652344 L 571.554688 417.652344 L 568.554688 417.652344 L 568.554688 408.652344 Z M 571.554688 420.652344 L 571.554688 429.652344 L 568.554688 429.652344 L 568.554688 420.652344 Z M 571.554688 432.652344 L 571.554688 441.652344 L 568.554688 441.652344 L 568.554688 432.652344 Z M 571.554688 444.652344 L 571.554688 453.652344 L 568.554688 453.652344 L 568.554688 444.652344 Z M 571.554688 456.652344 L 571.554688 465.652344 L 568.554688 465.652344 L 568.554688 456.652344 Z M 571.554688 468.652344 L 571.554688 477.652344 L 568.554688 477.652344 L 568.554688 468.652344 Z M 571.554688 480.652344 L 571.554688 489.652344 L 568.554688 489.652344 L 568.554688 480.652344 Z M 571.554688 492.652344 L 571.554688 501.652344 L 568.554688 501.652344 L 568.554688 492.652344 Z M 571.554688 504.652344 L 571.554688 513.652344 L 568.554688 513.652344 L 568.554688 504.652344 Z M 571.554688 516.652344 L 571.554688 525.652344 L 568.554688 525.652344 L 568.554688 516.652344 Z M 571.554688 528.652344 L 571.554688 535.773438 C 571.554688 536.460938 571.519531 537.148438 571.445312 537.828125 L 568.464844 537.515625 C 568.523438 536.9375 568.554688 536.359375 568.554688 535.773438 L 568.554688 528.652344 Z M 570.839844 541.015625 C 569.949219 544.21875 568.335938 547.015625 566 549.40625 L 563.851562 547.308594 C 565.832031 545.285156 567.199219 542.917969 567.953125 540.210938 Z M 563.539062 551.535156 C 560.847656 553.5 557.847656 554.695312 554.546875 555.117188 L 554.167969 552.140625 C 556.957031 551.785156 559.492188 550.773438 561.769531 549.109375 Z M 551.34375 555.273438 L 542.34375 555.273438 L 542.34375 552.273438 L 551.34375 552.273438 Z M 539.34375 555.273438 L 530.34375 555.273438 L 530.34375 552.273438 L 539.34375 552.273438 Z M 527.34375 555.273438 L 518.34375 555.273438 L 518.34375 552.273438 L 527.34375 552.273438 Z M 515.34375 555.273438 L 506.34375 555.273438 L 506.34375 552.273438 L 515.34375 552.273438 Z M 503.34375 555.273438 L 494.34375 555.273438 L 494.34375 552.273438 L 503.34375 552.273438 Z M 491.34375 555.273438 L 482.34375 555.273438 L 482.34375 552.273438 L 491.34375 552.273438 Z M 479.34375 555.273438 L 470.34375 555.273438 L 470.34375 552.273438 L 479.34375 552.273438 Z M 467.34375 555.273438 L 458.34375 555.273438 L 458.34375 552.273438 L 467.34375 552.273438 Z M 455.34375 555.273438 L 446.34375 555.273438 L 446.34375 552.273438 L 455.34375 552.273438 Z M 443.34375 555.273438 L 434.34375 555.273438 L 434.34375 552.273438 L 443.34375 552.273438 Z M 431.34375 555.273438 L 422.34375 555.273438 L 422.34375 552.273438 L 431.34375 552.273438 Z M 419.34375 555.273438 L 410.34375 555.273438 L 410.34375 552.273438 L 419.34375 552.273438 Z M 407.34375 555.273438 L 398.34375 555.273438 L 398.34375 552.273438 L 407.34375 552.273438 Z M 395.34375 555.273438 L 386.34375 555.273438 L 386.34375 552.273438 L 395.34375 552.273438 Z M 383.34375 555.273438 L 374.34375 555.273438 L 374.34375 552.273438 L 383.34375 552.273438 Z M 371.34375 555.273438 L 362.34375 555.273438 L 362.34375 552.273438 L 371.34375 552.273438 Z M 359.34375 555.273438 L 350.34375 555.273438 L 350.34375 552.273438 L 359.34375 552.273438 Z M 347.34375 555.273438 L 338.34375 555.273438 L 338.34375 552.273438 L 347.34375 552.273438 Z M 335.34375 555.273438 L 326.34375 555.273438 L 326.34375 552.273438 L 335.34375 552.273438 Z M 323.34375 555.273438 L 314.34375 555.273438 L 314.34375 552.273438 L 323.34375 552.273438 Z M 311.34375 555.273438 L 302.34375 555.273438 L 302.34375 552.273438 L 311.34375 552.273438 Z M 299.34375 555.273438 L 290.34375 555.273438 L 290.34375 552.273438 L 299.34375 552.273438 Z M 287.34375 555.273438 L 278.34375 555.273438 L 278.34375 552.273438 L 287.34375 552.273438 Z M 275.34375 555.273438 L 266.34375 555.273438 L 266.34375 552.273438 L 275.34375 552.273438 Z M 263.34375 555.273438 L 254.34375 555.273438 L 254.34375 552.273438 L 263.34375 552.273438 Z M 251.34375 555.273438 L 242.34375 555.273438 L 242.34375 552.273438 L 251.34375 552.273438 Z M 239.34375 555.273438 L 230.34375 555.273438 L 230.34375 552.273438 L 239.34375 552.273438 Z M 227.34375 555.273438 L 218.34375 555.273438 L 218.34375 552.273438 L 227.34375 552.273438 Z M 215.34375 555.273438 L 206.34375 555.273438 L 206.34375 552.273438 L 215.34375 552.273438 Z M 203.34375 555.273438 L 194.34375 555.273438 L 194.34375 552.273438 L 203.34375 552.273438 Z M 191.34375 555.273438 L 182.34375 555.273438 L 182.34375 552.273438 L 191.34375 552.273438 Z M 179.34375 555.273438 L 170.34375 555.273438 L 170.34375 552.273438 L 179.34375 552.273438 Z M 167.34375 555.273438 L 158.34375 555.273438 L 158.34375 552.273438 L 167.34375 552.273438 Z M 155.34375 555.273438 L 153.101562 555.273438 C 153.390625 555.273438 153.636719 555.171875 153.84375 554.96875 C 154.046875 554.761719 154.148438 554.515625 154.148438 554.226562 C 154.148438 554.769531 153.957031 555.230469 153.578125 555.609375 C 153.195312 555.992188 152.734375 556.183594 152.195312 556.183594 L 146.824219 556.183594 L 146.824219 553.183594 L 152.195312 553.183594 C 151.90625 553.183594 151.660156 553.285156 151.453125 553.488281 C 151.25 553.691406 151.148438 553.941406 151.148438 554.226562 C 151.148438 553.6875 151.339844 553.226562 151.722656 552.847656 C 152.101562 552.464844 152.5625 552.273438 153.101562 552.273438 L 155.34375 552.273438 Z M 143.824219 556.183594 L 134.824219 556.183594 L 134.824219 553.183594 L 143.824219 553.183594 Z M 131.824219 556.183594 L 122.824219 556.183594 L 122.824219 553.183594 L 131.824219 553.183594 Z M 119.824219 556.183594 L 115.738281 556.183594 L 115.738281 553.183594 L 119.824219 553.183594 Z M 119.824219 556.183594 " fill-opacity="1" fill-rule="nonzero"/><path fill="#000000" d="M 60.941406 555.273438 L 51.941406 555.273438 L 51.941406 552.273438 L 60.941406 552.273438 Z M 48.941406 555.273438 L 44.550781 555.273438 C 43.132812 555.273438 41.75 555.46875 40.402344 555.859375 L 39.566406 552.976562 C 41.1875 552.507812 42.847656 552.273438 44.550781 552.273438 L 48.941406 552.273438 Z M 37.863281 556.855469 C 35.355469 558.117188 33.363281 559.941406 31.882812 562.332031 L 29.332031 560.75 C 31.109375 557.882812 33.503906 555.691406 36.515625 554.175781 Z M 30.660156 564.785156 C 29.992188 566.507812 29.660156 568.300781 29.660156 570.164062 L 29.660156 573.121094 L 26.660156 573.121094 L 26.660156 570.164062 C 26.660156 567.925781 27.058594 565.773438 27.863281 563.703125 Z M 29.660156 576.121094 L 29.660156 585.121094 L 26.660156 585.121094 L 26.660156 576.121094 Z M 29.660156 588.121094 L 29.660156 597.121094 L 26.660156 597.121094 L 26.660156 588.121094 Z M 29.660156 600.121094 L 29.660156 609.121094 L 26.660156 609.121094 L 26.660156 600.121094 Z M 29.660156 612.121094 L 29.660156 621.121094 L 26.660156 621.121094 L 26.660156 612.121094 Z M 29.660156 624.121094 L 29.660156 633.121094 L 26.660156 633.121094 L 26.660156 624.121094 Z M 29.660156 636.121094 L 29.660156 645.121094 L 26.660156 645.121094 L 26.660156 636.121094 Z M 29.660156 648.121094 L 29.660156 657.121094 L 26.660156 657.121094 L 26.660156 648.121094 Z M 29.660156 660.121094 L 29.660156 669.121094 L 26.660156 669.121094 L 26.660156 660.121094 Z M 29.660156 672.121094 L 29.660156 681.121094 L 26.660156 681.121094 L 26.660156 672.121094 Z M 29.660156 684.121094 L 29.660156 693.121094 L 26.660156 693.121094 L 26.660156 684.121094 Z M 29.660156 696.121094 L 29.660156 705.121094 L 26.660156 705.121094 L 26.660156 696.121094 Z M 29.660156 708.121094 L 29.660156 717.121094 L 26.660156 717.121094 L 26.660156 708.121094 Z M 29.660156 720.121094 L 29.660156 729.121094 L 26.660156 729.121094 L 26.660156 720.121094 Z M 29.660156 732.121094 L 29.660156 741.121094 L 26.660156 741.121094 L 26.660156 732.121094 Z M 29.660156 744.121094 L 29.660156 753.121094 L 26.660156 753.121094 L 26.660156 744.121094 Z M 29.660156 756.121094 L 29.660156 764.46875 C 29.660156 764.675781 29.664062 764.878906 29.667969 765.078125 L 26.671875 765.1875 C 26.664062 764.949219 26.660156 764.710938 26.660156 764.46875 L 26.660156 756.121094 Z M 29.996094 767.800781 C 30.558594 770.550781 31.753906 773 33.582031 775.148438 L 31.292969 777.09375 C 29.136719 774.550781 27.722656 771.65625 27.054688 768.40625 Z M 35.53125 777.089844 C 37.695312 778.914062 40.15625 780.101562 42.917969 780.652344 L 42.332031 783.59375 C 39.066406 782.945312 36.152344 781.542969 33.597656 779.386719 Z M 45.644531 780.960938 C 45.816406 780.96875 45.988281 780.96875 46.160156 780.96875 L 54.609375 780.96875 L 54.609375 783.96875 L 46.160156 783.96875 C 45.957031 783.96875 45.753906 783.96875 45.554688 783.960938 Z M 57.609375 780.96875 L 66.609375 780.96875 L 66.609375 783.96875 L 57.609375 783.96875 Z M 69.609375 780.96875 L 78.609375 780.96875 L 78.609375 783.96875 L 69.609375 783.96875 Z M 81.609375 780.96875 L 90.609375 780.96875 L 90.609375 783.96875 L 81.609375 783.96875 Z M 93.609375 780.96875 L 102.609375 780.96875 L 102.609375 783.96875 L 93.609375 783.96875 Z M 105.609375 780.96875 L 114.609375 780.96875 L 114.609375 783.96875 L 105.609375 783.96875 Z M 117.609375 780.96875 L 126.609375 780.96875 L 126.609375 783.96875 L 117.609375 783.96875 Z M 129.609375 780.96875 L 138.609375 780.96875 L 138.609375 783.96875 L 129.609375 783.96875 Z M 141.609375 780.96875 L 150.609375 780.96875 L 150.609375 783.96875 L 141.609375 783.96875 Z M 153.609375 780.96875 L 162.609375 780.96875 L 162.609375 783.96875 L 153.609375 783.96875 Z M 165.609375 780.96875 L 174.609375 780.96875 L 174.609375 783.96875 L 165.609375 783.96875 Z M 177.609375 780.96875 L 186.609375 780.96875 L 186.609375 783.96875 L 177.609375 783.96875 Z M 189.609375 780.96875 L 198.609375 780.96875 L 198.609375 783.96875 L 189.609375 783.96875 Z M 201.609375 780.96875 L 210.609375 780.96875 L 210.609375 783.96875 L 201.609375 783.96875 Z M 213.609375 780.96875 L 222.609375 780.96875 L 222.609375 783.96875 L 213.609375 783.96875 Z M 225.609375 780.96875 L 234.609375 780.96875 L 234.609375 783.96875 L 225.609375 783.96875 Z M 237.609375 780.96875 L 246.609375 780.96875 L 246.609375 783.96875 L 237.609375 783.96875 Z M 249.609375 780.96875 L 251.167969 780.96875 L 251.167969 783.96875 L 249.609375 783.96875 Z M 249.609375 780.96875 " fill-opacity="1" fill-rule="nonzero"/><path fill="#000000" d="M 297.769531 782.46875 L 306.769531 782.46875 L 306.769531 785.46875 L 297.769531 785.46875 Z M 309.769531 782.46875 L 318.769531 782.46875 L 318.769531 785.46875 L 309.769531 785.46875 Z M 321.769531 782.46875 L 330.769531 782.46875 L 330.769531 785.46875 L 321.769531 785.46875 Z M 333.769531 782.46875 L 342.769531 782.46875 L 342.769531 785.46875 L 333.769531 785.46875 Z M 345.769531 782.46875 L 354.769531 782.46875 L 354.769531 785.46875 L 345.769531 785.46875 Z M 357.769531 782.46875 L 366.769531 782.46875 L 366.769531 785.46875 L 357.769531 785.46875 Z M 369.769531 782.46875 L 378.769531 782.46875 L 378.769531 785.46875 L 369.769531 785.46875 Z M 381.769531 782.46875 L 390.769531 782.46875 L 390.769531 785.46875 L 381.769531 785.46875 Z M 393.769531 782.46875 L 402.769531 782.46875 L 402.769531 785.46875 L 393.769531 785.46875 Z M 405.769531 782.46875 L 414.769531 782.46875 L 414.769531 785.46875 L 405.769531 785.46875 Z M 417.769531 782.46875 L 426.769531 782.46875 L 426.769531 785.46875 L 417.769531 785.46875 Z M 429.769531 782.46875 L 438.769531 782.46875 L 438.769531 785.46875 L 429.769531 785.46875 Z M 441.769531 782.46875 L 450.769531 782.46875 L 450.769531 785.46875 L 441.769531 785.46875 Z M 453.769531 782.46875 L 462.769531 782.46875 L 462.769531 785.46875 L 453.769531 785.46875 Z M 465.769531 782.46875 L 474.769531 782.46875 L 474.769531 785.46875 L 465.769531 785.46875 Z M 477.769531 782.46875 L 486.769531 782.46875 L 486.769531 785.46875 L 477.769531 785.46875 Z M 489.769531 782.46875 L 498.769531 782.46875 L 498.769531 785.46875 L 489.769531 785.46875 Z M 501.769531 782.46875 L 510.769531 782.46875 L 510.769531 785.46875 L 501.769531 785.46875 Z M 513.769531 782.46875 L 522.769531 782.46875 L 522.769531 785.46875 L 513.769531 785.46875 Z M 525.769531 782.46875 L 534.769531 782.46875 L 534.769531 785.46875 L 525.769531 785.46875 Z M 537.769531 782.46875 L 546.769531 782.46875 L 546.769531 785.46875 L 537.769531 785.46875 Z M 549.769531 782.46875 L 555.667969 782.46875 C 556.800781 782.46875 557.917969 782.566406 559.023438 782.757812 L 558.511719 785.714844 C 557.574219 785.550781 556.628906 785.46875 555.667969 785.46875 L 549.769531 785.46875 Z M 562.171875 783.582031 C 565.292969 784.683594 567.96875 786.476562 570.191406 788.957031 L 567.957031 790.957031 C 566.074219 788.859375 563.8125 787.34375 561.171875 786.410156 Z M 572.15625 791.550781 C 573.9375 794.363281 574.929688 797.433594 575.132812 800.761719 L 572.136719 800.945312 C 571.964844 798.128906 571.125 795.535156 569.621094 793.15625 Z M 575.167969 803.867188 L 575.167969 812.867188 L 572.167969 812.867188 L 572.167969 803.867188 Z M 575.167969 815.867188 L 575.167969 824.867188 L 572.167969 824.867188 L 572.167969 815.867188 Z M 575.167969 827.867188 L 575.167969 836.867188 L 572.167969 836.867188 L 572.167969 827.867188 Z M 575.167969 839.867188 L 575.167969 848.867188 L 572.167969 848.867188 L 572.167969 839.867188 Z M 575.167969 851.867188 L 575.167969 860.867188 L 572.167969 860.867188 L 572.167969 851.867188 Z M 575.167969 863.867188 L 575.167969 872.867188 L 572.167969 872.867188 L 572.167969 863.867188 Z M 575.167969 875.867188 L 575.167969 884.867188 L 572.167969 884.867188 L 572.167969 875.867188 Z M 575.167969 887.867188 L 575.167969 896.867188 L 572.167969 896.867188 L 572.167969 887.867188 Z M 575.167969 899.867188 L 575.167969 908.867188 L 572.167969 908.867188 L 572.167969 899.867188 Z M 575.167969 911.867188 L 575.167969 920.867188 L 572.167969 920.867188 L 572.167969 911.867188 Z M 575.167969 923.867188 L 575.167969 932.867188 L 572.167969 932.867188 L 572.167969 923.867188 Z M 575.167969 935.867188 L 575.167969 944.867188 L 572.167969 944.867188 L 572.167969 935.867188 Z M 575.167969 947.867188 L 575.167969 956.867188 L 572.167969 956.867188 L 572.167969 947.867188 Z M 575.167969 959.867188 L 575.167969 968.867188 L 572.167969 968.867188 L 572.167969 959.867188 Z M 575.167969 971.867188 L 575.167969 980.867188 L 572.167969 980.867188 L 572.167969 971.867188 Z M 575.167969 983.867188 L 575.167969 992.878906 L 572.167969 992.863281 L 572.167969 983.867188 Z M 574.867188 996.128906 C 574.285156 999.40625 572.941406 1002.34375 570.839844 1004.941406 L 568.507812 1003.054688 C 570.285156 1000.859375 571.421875 998.371094 571.914062 995.601562 Z M 568.59375 1007.292969 C 566.089844 1009.507812 563.214844 1010.984375 559.964844 1011.714844 L 559.308594 1008.789062 C 562.054688 1008.167969 564.484375 1006.921875 566.605469 1005.046875 Z M 556.757812 1012.160156 C 556.394531 1012.179688 556.03125 1012.1875 555.667969 1012.1875 L 547.660156 1012.1875 L 547.660156 1009.1875 L 555.667969 1009.1875 C 555.976562 1009.1875 556.285156 1009.179688 556.59375 1009.164062 Z M 544.660156 1012.1875 L 535.660156 1012.1875 L 535.660156 1009.1875 L 544.660156 1009.1875 Z M 532.660156 1012.1875 L 523.660156 1012.1875 L 523.660156 1009.1875 L 532.660156 1009.1875 Z M 520.660156 1012.1875 L 511.660156 1012.1875 L 511.660156 1009.1875 L 520.660156 1009.1875 Z M 508.660156 1012.1875 L 499.660156 1012.1875 L 499.660156 1009.1875 L 508.660156 1009.1875 Z M 496.660156 1012.1875 L 487.660156 1012.1875 L 487.660156 1009.1875 L 496.660156 1009.1875 Z M 484.660156 1012.1875 L 475.660156 1012.1875 L 475.660156 1009.1875 L 484.660156 1009.1875 Z M 472.660156 1012.1875 L 463.660156 1012.1875 L 463.660156 1009.1875 L 472.660156 1009.1875 Z M 460.660156 1012.1875 L 451.660156 1012.1875 L 451.660156 1009.1875 L 460.660156 1009.1875 Z M 448.660156 1012.1875 L 439.660156 1012.1875 L 439.660156 1009.1875 L 448.660156 1009.1875 Z M 436.660156 1012.1875 L 427.660156 1012.1875 L 427.660156 1009.1875 L 436.660156 1009.1875 Z M 424.660156 1012.1875 L 415.660156 1012.1875 L 415.660156 1009.1875 L 424.660156 1009.1875 Z M 412.660156 1012.1875 L 403.660156 1012.1875 L 403.660156 1009.1875 L 412.660156 1009.1875 Z M 400.660156 1012.1875 L 391.660156 1012.1875 L 391.660156 1009.1875 L 400.660156 1009.1875 Z M 388.660156 1012.1875 L 379.660156 1012.1875 L 379.660156 1009.1875 L 388.660156 1009.1875 Z M 376.660156 1012.1875 L 367.660156 1012.1875 L 367.660156 1009.1875 L 376.660156 1009.1875 Z M 364.660156 1012.1875 L 355.660156 1012.1875 L 355.660156 1009.1875 L 364.660156 1009.1875 Z M 352.660156 1012.1875 L 343.660156 1012.1875 L 343.660156 1009.1875 L 352.660156 1009.1875 Z M 340.660156 1012.1875 L 331.660156 1012.1875 L 331.660156 1009.1875 L 340.660156 1009.1875 Z M 328.660156 1012.1875 L 319.660156 1012.1875 L 319.660156 1009.1875 L 328.660156 1009.1875 Z M 316.660156 1012.1875 L 307.660156 1012.1875 L 307.660156 1009.1875 L 316.660156 1009.1875 Z M 304.660156 1012.1875 L 295.660156 1012.1875 L 295.660156 1009.1875 L 304.660156 1009.1875 Z M 292.660156 1012.1875 L 283.660156 1012.1875 L 283.660156 1009.1875 L 292.660156 1009.1875 Z M 280.660156 1012.1875 L 271.660156 1012.1875 L 271.660156 1009.1875 L 280.660156 1009.1875 Z M 268.660156 1012.1875 L 259.660156 1012.1875 L 259.660156 1009.1875 L 268.660156 1009.1875 Z M 256.660156 1012.1875 L 247.660156 1012.1875 L 247.660156 1009.1875 L 256.660156 1009.1875 Z M 244.660156 1012.1875 L 235.660156 1012.1875 L 235.660156 1009.1875 L 244.660156 1009.1875 Z M 232.660156 1012.1875 L 223.660156 1012.1875 L 223.660156 1009.1875 L 232.660156 1009.1875 Z M 220.660156 1012.1875 L 211.660156 1012.1875 L 211.660156 1009.1875 L 220.660156 1009.1875 Z M 208.660156 1012.1875 L 199.660156 1012.1875 L 199.660156 1009.1875 L 208.660156 1009.1875 Z M 196.660156 1012.1875 L 187.660156 1012.1875 L 187.660156 1009.1875 L 196.660156 1009.1875 Z M 184.660156 1012.1875 L 175.660156 1012.1875 L 175.660156 1009.1875 L 184.660156 1009.1875 Z M 172.660156 1012.1875 L 163.660156 1012.1875 L 163.660156 1009.1875 L 172.660156 1009.1875 Z M 160.660156 1012.1875 L 151.660156 1012.1875 L 151.660156 1009.1875 L 160.660156 1009.1875 Z M 148.660156 1012.1875 L 139.660156 1012.1875 L 139.660156 1009.1875 L 148.660156 1009.1875 Z M 136.660156 1012.1875 L 127.660156 1012.1875 L 127.660156 1009.1875 L 136.660156 1009.1875 Z M 124.660156 1012.1875 L 115.660156 1012.1875 L 115.660156 1009.1875 L 124.660156 1009.1875 Z M 112.660156 1012.1875 L 112.195312 1012.1875 L 112.195312 1009.1875 L 112.660156 1009.1875 Z M 112.660156 1012.1875 " fill-opacity="1" fill-rule="nonzero"/><path fill="#000000" d="M 298.5 1260.296875 L 298.5 1252.621094 C 298.5 1252.257812 298.46875 1251.902344 298.40625 1251.546875 L 301.359375 1251.027344 C 301.453125 1251.554688 301.5 1252.085938 301.5 1252.621094 L 301.5 1260.296875 Z M 297.535156 1249.308594 C 297.292969 1248.925781 297.011719 1248.574219 296.691406 1248.25 C 295.484375 1247.046875 294.027344 1246.441406 292.324219 1246.441406 L 290.980469 1246.441406 L 290.980469 1243.441406 L 292.324219 1243.441406 C 294.859375 1243.441406 297.019531 1244.339844 298.8125 1246.128906 C 299.289062 1246.605469 299.707031 1247.128906 300.070312 1247.699219 Z M 287.980469 1246.441406 L 278.980469 1246.441406 L 278.980469 1243.441406 L 287.980469 1243.441406 Z M 275.980469 1246.441406 L 266.980469 1246.441406 L 266.980469 1243.441406 L 275.980469 1243.441406 Z M 263.980469 1246.441406 L 254.980469 1246.441406 L 254.980469 1243.441406 L 263.980469 1243.441406 Z M 251.980469 1246.441406 L 242.980469 1246.441406 L 242.980469 1243.441406 L 251.980469 1243.441406 Z M 239.980469 1246.441406 L 230.980469 1246.441406 L 230.980469 1243.441406 L 239.980469 1243.441406 Z M 227.980469 1246.441406 L 218.980469 1246.441406 L 218.980469 1243.441406 L 227.980469 1243.441406 Z M 215.980469 1246.441406 L 206.980469 1246.441406 L 206.980469 1243.441406 L 215.980469 1243.441406 Z M 203.980469 1246.441406 L 194.980469 1246.441406 L 194.980469 1243.441406 L 203.980469 1243.441406 Z M 191.980469 1246.441406 L 182.980469 1246.441406 L 182.980469 1243.441406 L 191.980469 1243.441406 Z M 179.980469 1246.441406 L 170.980469 1246.441406 L 170.980469 1243.441406 L 179.980469 1243.441406 Z M 167.980469 1246.441406 L 158.980469 1246.441406 L 158.980469 1243.441406 L 167.980469 1243.441406 Z M 155.980469 1246.441406 L 146.980469 1246.441406 L 146.980469 1243.441406 L 155.980469 1243.441406 Z M 143.980469 1246.441406 L 134.980469 1246.441406 L 134.980469 1243.441406 L 143.980469 1243.441406 Z M 131.980469 1246.441406 L 122.980469 1246.441406 L 122.980469 1243.441406 L 131.980469 1243.441406 Z M 119.980469 1246.441406 L 110.980469 1246.441406 L 110.980469 1243.441406 L 119.980469 1243.441406 Z M 107.980469 1246.441406 L 98.980469 1246.441406 L 98.980469 1243.441406 L 107.980469 1243.441406 Z M 95.980469 1246.441406 L 86.980469 1246.441406 L 86.980469 1243.441406 L 95.980469 1243.441406 Z M 83.980469 1246.441406 L 74.980469 1246.441406 L 74.980469 1243.441406 L 83.980469 1243.441406 Z M 71.980469 1246.441406 L 62.980469 1246.441406 L 62.980469 1243.441406 L 71.980469 1243.441406 Z M 59.980469 1246.441406 L 50.980469 1246.441406 L 50.980469 1243.441406 L 59.980469 1243.441406 Z M 47.835938 1246.371094 C 44.515625 1246.089844 41.472656 1245.023438 38.699219 1243.175781 L 40.367188 1240.679688 C 42.710938 1242.242188 45.285156 1243.144531 48.089844 1243.382812 Z M 36.152344 1241.152344 C 33.71875 1238.863281 31.988281 1236.136719 30.960938 1232.972656 L 33.8125 1232.046875 C 34.683594 1234.722656 36.148438 1237.027344 38.207031 1238.964844 Z M 30.21875 1229.808594 C 30.078125 1228.863281 30.007812 1227.90625 30.007812 1226.941406 L 30.007812 1220.582031 L 33.007812 1220.582031 L 33.007812 1226.941406 C 33.007812 1227.761719 33.070312 1228.570312 33.1875 1229.371094 Z M 30.007812 1217.582031 L 30.007812 1208.582031 L 33.007812 1208.582031 L 33.007812 1217.582031 Z M 30.007812 1205.582031 L 30.007812 1196.582031 L 33.007812 1196.582031 L 33.007812 1205.582031 Z M 30.007812 1193.582031 L 30.007812 1184.582031 L 33.007812 1184.582031 L 33.007812 1193.582031 Z M 30.007812 1181.582031 L 30.007812 1172.582031 L 33.007812 1172.582031 L 33.007812 1181.582031 Z M 30.007812 1169.582031 L 30.007812 1160.582031 L 33.007812 1160.582031 L 33.007812 1169.582031 Z M 30.007812 1157.582031 L 30.007812 1148.582031 L 33.007812 1148.582031 L 33.007812 1157.582031 Z M 30.007812 1145.582031 L 30.007812 1136.582031 L 33.007812 1136.582031 L 33.007812 1145.582031 Z M 30.007812 1133.582031 L 30.007812 1124.582031 L 33.007812 1124.582031 L 33.007812 1133.582031 Z M 30.007812 1121.582031 L 30.007812 1112.582031 L 33.007812 1112.582031 L 33.007812 1121.582031 Z M 30.007812 1109.582031 L 30.007812 1100.582031 L 33.007812 1100.582031 L 33.007812 1109.582031 Z M 30.007812 1097.582031 L 30.007812 1088.582031 L 33.007812 1088.582031 L 33.007812 1097.582031 Z M 30.007812 1085.582031 L 30.007812 1076.582031 L 33.007812 1076.582031 L 33.007812 1085.582031 Z M 30.007812 1073.582031 L 30.007812 1064.582031 L 33.007812 1064.582031 L 33.007812 1073.582031 Z M 30.007812 1061.582031 L 30.007812 1052.582031 L 33.007812 1052.582031 L 33.007812 1061.582031 Z M 30.007812 1049.582031 L 30.007812 1040.582031 L 33.007812 1040.582031 L 33.007812 1049.582031 Z M 30.007812 1037.582031 L 30.007812 1030.1875 C 30.007812 1029.601562 30.035156 1029.015625 30.085938 1028.429688 L 33.074219 1028.699219 C 33.03125 1029.191406 33.007812 1029.691406 33.007812 1030.1875 L 33.007812 1037.582031 Z M 30.644531 1025.238281 C 31.484375 1022.03125 33.046875 1019.21875 35.335938 1016.796875 L 37.515625 1018.859375 C 35.578125 1020.90625 34.257812 1023.285156 33.546875 1025.996094 Z M 37.757812 1014.628906 C 40.417969 1012.613281 43.398438 1011.367188 46.691406 1010.890625 L 47.121094 1013.859375 C 44.335938 1014.265625 41.816406 1015.316406 39.566406 1017.019531 Z M 49.914062 1010.6875 L 58.914062 1010.6875 L 58.914062 1013.6875 L 49.914062 1013.6875 Z M 61.914062 1010.6875 L 70.914062 1010.6875 L 70.914062 1013.6875 L 61.914062 1013.6875 Z M 61.914062 1010.6875 " fill-opacity="1" fill-rule="nonzero"/></svg>